<svg width="130" height="40" viewBox="0 0 130 40" fill="none" xmlns="http://www.w3.org/2000/svg">
  <path d="M85.7 15.6H80V20H85.7V32.5H92.3V20H98.1L98.8 15.6H92.3V13.1C92.3 11.8 93.3 10.9 94.5 10.9H98.8V5H94.5C89.7 5 85.7 9 85.7 13.8V15.6Z" fill="white"/>
  <path d="M44.9 20C44.9 12.3 51.1 6 58.8 6C66.5 6 72.7 12.2 72.7 20C72.7 27.8 66.5 34 58.8 34C51.1 34 44.9 27.7 44.9 20ZM68.2 20C68.2 14.7 64 10.5 58.7 10.5C53.4 10.5 49.2 14.7 49.2 20C49.2 25.3 53.4 29.5 58.7 29.5C64 29.5 68.2 25.3 68.2 20Z" fill="white"/>
  <path d="M23.5 32.5H28.5L30.1 28.3H38.9L40.5 32.5H45.5L36.9 10H32.1L23.5 32.5ZM31.9 24.2L34.3 17.9H34.7L37.1 24.2H31.9Z" fill="white"/>
  <path d="M106.5 23.8C106.5 19.4 109.8 16.4 113.9 16.4C117.4 16.4 120.7 18.7 121.2 22.3H116.6C116.2 20.8 115.2 20 113.9 20C111.9 20 110.7 21.5 110.7 23.7C110.7 25.9 111.9 27.4 113.9 27.4C115.3 27.4 116.2 26.6 116.6 25.1H121.2C120.7 28.7 117.4 31 113.9 31C109.8 31 106.5 28 106.5 23.8Z" fill="white"/>
  <path d="M127.7 16.9H123.2V31.5H127.7V16.9Z" fill="white"/>
  <path d="M127.8 11.3C127.8 12.9 126.5 14.2 124.9 14.2C123.3 14.2 122 12.9 122 11.3C122 9.7 123.3 8.4 124.9 8.4C126.5 8.4 127.8 9.7 127.8 11.3Z" fill="white"/>
</svg>
