<svg width="130" height="40" viewBox="0 0 130 40" fill="none" xmlns="http://www.w3.org/2000/svg">
  <path d="M57.9 20.2C57.9 19 57.8 17.8 57.5 16.7H40V22.5H50.1C49.7 24.4 48.5 26 46.8 27.1V31.1H52.7C56.1 28 57.9 24.5 57.9 20.2Z" fill="white"/>
  <path d="M40 35.9C45 35.9 49.2 34.3 52.7 31.1L46.8 27.1C44.9 28.3 42.6 29 40 29C34.3 29 29.5 25.2 28 20.2H21.9V24.3C25.4 31.2 32.3 35.9 40 35.9Z" fill="white"/>
  <path d="M28 20.2C27.5 18.8 27.5 17.3 28 15.9V11.8H21.9C19.7 16.3 19.7 21.7 21.9 26.2L28 20.2Z" fill="white"/>
  <path d="M40 11.3C42.3 11.3 44.4 12.1 46.1 13.7L51.3 8.5C48.1 5.5 44.2 4 40 4C32.3 4 25.4 8.7 21.9 15.6L28 19.7C29.5 14.7 34.3 11.3 40 11.3Z" fill="white"/>
  <path d="M76.9 18.9C76.9 18.4 76.4 18 75.9 18H65.2C64.7 18 64.2 18.5 64.2 19V21C64.2 21.5 64.7 22 65.2 22H71.9C71.2 24.2 69.5 25.8 65.2 25.8C61.5 25.8 58.4 22.7 58.4 19C58.4 15.3 61.5 12.2 65.2 12.2C67.4 12.2 68.9 13.1 69.8 13.9C70.2 14.3 70.8 14.3 71.2 13.9L72.8 12.3C73.3 11.8 73.2 11 72.7 10.6C71.1 9.1 68.8 8 65.2 8C59.1 8 54 13.1 54 19.2C54 25.3 59.1 30.4 65.2 30.4C71.7 30.4 76.9 26.4 76.9 19.2V18.9Z" fill="white"/>
  <path d="M85.1 12.6C81.5 12.6 78.5 15.7 78.5 19.2C78.5 22.8 81.6 25.8 85.1 25.8C88.7 25.8 91.7 22.7 91.7 19.2C91.7 15.7 88.7 12.6 85.1 12.6ZM85.1 22.4C83.5 22.4 82.1 21 82.1 19.2C82.1 17.4 83.5 16 85.1 16C86.7 16 88.1 17.4 88.1 19.2C88.1 21 86.7 22.4 85.1 22.4Z" fill="white"/>
  <path d="M101 12.6C97.4 12.6 94.4 15.7 94.4 19.2C94.4 22.8 97.5 25.8 101 25.8C104.6 25.8 107.6 22.7 107.6 19.2C107.6 15.7 104.6 12.6 101 12.6ZM101 22.4C99.4 22.4 98 21 98 19.2C98 17.4 99.4 16 101 16C102.6 16 104 17.4 104 19.2C104 21 102.6 22.4 101 22.4Z" fill="white"/>
  <path d="M116.9 12.6C113.6 12.6 110.9 15.5 110.9 19.2C110.9 23 113.8 25.8 116.9 25.8C118.7 25.8 119.9 25 120.7 24V24.9C120.7 25.4 121.2 25.9 121.7 25.9H123.5V13.5C123.5 13 123 12.5 122.5 12.5H120.7C120.2 12.5 119.7 13 119.7 13.5V14.4C118.9 13.4 117.7 12.6 116.9 12.6ZM117.5 22.4C115.9 22.4 114.5 21 114.5 19.2C114.5 17.4 115.9 16 117.5 16C119.1 16 120.5 17.4 120.5 19.2C120.5 21 119.1 22.4 117.5 22.4Z" fill="white"/>
</svg>
