<svg width="130" height="40" viewBox="0 0 130 40" fill="none" xmlns="http://www.w3.org/2000/svg">
  <path d="M9.66 23.72C9.66 25.44 10.42 26.3 12.38 26.3C13.5 26.3 14.74 25.94 15.86 25.24V23H12.62C10.82 23 9.66 23.12 9.66 23.72ZM22.58 29.72L21.26 25.6C20.54 25.96 19.94 26.1 19.4 26.1C18.76 26.1 18.34 25.84 18.34 25.08V19.48H21.38V15.52H18.34V11.48H14.18V15.52H11.8V19.48H14.06C14.06 19.48 14.06 22.5 14.06 23.42C14.06 27.02 16.3 29.96 20.22 29.96C20.74 29.96 21.5 29.9 22.58 29.72Z" fill="white"/>
  <path d="M32.6484 20.22C32.1684 19.14 31.1684 18.62 29.9284 18.62C27.4484 18.62 25.9684 20.58 25.9684 23.14C25.9684 25.7 27.4484 27.66 29.9284 27.66C31.1684 27.66 32.1684 27.14 32.6484 26.06V29.48H36.8084V19.06H32.6484V20.22ZM31.1084 23.14C31.1084 21.78 30.6284 21.02 29.9284 21.02C29.2284 21.02 28.7484 21.78 28.7484 23.14C28.7484 24.5 29.2284 25.26 29.9284 25.26C30.6284 25.26 31.1084 24.5 31.1084 23.14Z" fill="white"/>
  <path d="M48.4244 19.06L46.2244 25.42L44.0244 19.06H39.5644L37.3644 29.48H40.8244L41.8244 23.12L44.2644 29.48H48.1844L50.6244 23.12L51.6244 29.48H55.0844L52.8844 19.06H48.4244Z" fill="white"/>
  <path d="M66.8903 19.06L64.6903 25.42L62.4903 19.06H58.0303L55.8303 29.48H59.2903L60.2903 23.12L62.7303 29.48H66.6503L69.0903 23.12L70.0903 29.48H73.5503L71.3503 19.06H66.8903Z" fill="white"/>
  <path d="M82.057 15.52H77.897V29.48H82.057V15.52Z" fill="white"/>
  <path d="M92.1994 18.62C89.4794 18.62 87.3994 20.42 87.3994 23.14C87.3994 25.86 89.4794 27.66 92.1994 27.66C94.9194 27.66 96.9994 25.86 96.9994 23.14C96.9994 20.42 94.9194 18.62 92.1994 18.62ZM92.1994 25.18C90.9594 25.18 90.1794 24.3 90.1794 23.14C90.1794 21.98 90.9594 21.1 92.1994 21.1C93.4394 21.1 94.2194 21.98 94.2194 23.14C94.2194 24.3 93.4394 25.18 92.1994 25.18Z" fill="white"/>
  <path d="M106.144 20.22C105.664 19.14 104.664 18.62 103.424 18.62C100.944 18.62 99.4641 20.58 99.4641 23.14C99.4641 25.7 100.944 27.66 103.424 27.66C104.664 27.66 105.664 27.14 106.144 26.06V29.48H110.304V15.52H106.144V20.22ZM104.604 23.14C104.604 21.78 104.124 21.02 103.424 21.02C102.724 21.02 102.244 21.78 102.244 23.14C102.244 24.5 102.724 25.26 103.424 25.26C104.124 25.26 104.604 24.5 104.604 23.14Z" fill="white"/>
  <path d="M121.44 19.06L119.24 25.42L117.04 19.06H112.58L110.38 29.48H113.84L114.84 23.12L117.28 29.48H121.2L123.64 23.12L124.64 29.48H128.1L125.9 19.06H121.44Z" fill="white"/>
</svg>
