<svg width="130" height="40" viewBox="0 0 130 40" fill="none" xmlns="http://www.w3.org/2000/svg">
  <path d="M49.5 20C49.5 20.8 50.1 21.5 51 21.5H66.2L49.8 31V35.5H74V30.5H58.8L74.8 21V16.5H51C50.1 16.5 49.5 17.2 49.5 18V20Z" fill="white"/>
  <path d="M83 16.5H77V35.5H83V16.5Z" fill="white"/>
  <path d="M94 16.5C93.1 16.5 92.5 17.2 92.5 18V34C92.5 34.8 93.1 35.5 94 35.5H96C96.9 35.5 97.5 34.8 97.5 34V32.5C99.1 34.4 101.5 35.5 104 35.5C109.5 35.5 114 31 114 25.5C114 20 109.5 16 104 16C101.5 16 99.1 17.1 97.5 19V18C97.5 17.2 96.9 16.5 96 16.5H94ZM104 30.5C102.4 30.5 100.9 29.9 99.8 28.8C98.7 27.6 98 26.1 98 24.5C98 22.9 98.7 21.4 99.8 20.2C100.9 19.1 102.4 18.5 104 18.5C107.5 18.5 110.3 21.3 110.3 24.8C110.3 28.3 107.5 30.5 104 30.5Z" fill="white"/>
  <path d="M124.3 16C123.4 16 122.8 16.7 122.8 17.5V19C121.2 17.1 118.8 16 116.3 16C110.8 16 106.3 20.5 106.3 26C106.3 31.5 110.8 35.5 116.3 35.5C118.8 35.5 121.2 34.4 122.8 32.5V34C122.8 34.8 123.4 35.5 124.3 35.5H126.3C127.2 35.5 127.8 34.8 127.8 34V18C127.8 17.2 127.2 16.5 126.3 16.5H124.3V16ZM116.3 21C119.8 21 122.5 23.7 122.5 27.2C122.5 30.7 119.7 33 116.3 33C112.8 33 110 30.2 110 26.7C110 23.2 112.8 21 116.3 21Z" fill="white"/>
</svg>
