<svg width="15" height="15" viewBox="0 0 15 15" fill="none" xmlns="http://www.w3.org/2000/svg">
<path d="M14.2587 11.1118V13.1118C14.2595 13.2974 14.2215 13.4812 14.1471 13.6513C14.0727 13.8215 13.9636 13.9742 13.8268 14.0997C13.69 14.2252 13.5285 14.3208 13.3526 14.3802C13.1767 14.4397 12.9903 14.4618 12.8054 14.4451C10.754 14.2222 8.78341 13.5212 7.05208 12.3984C5.4413 11.3749 4.07564 10.0092 3.05208 8.39844C1.9254 6.65924 1.22424 4.6791 1.00541 2.61844C0.988751 2.43408 1.01066 2.24828 1.06974 2.07285C1.12883 1.89743 1.22379 1.73623 1.34859 1.59952C1.47339 1.46281 1.62528 1.35358 1.79461 1.27879C1.96393 1.20399 2.14697 1.16528 2.33208 1.1651H4.33208C4.65562 1.16192 4.96927 1.27649 5.21459 1.48746C5.4599 1.69843 5.62013 1.9914 5.66541 2.31177C5.74983 2.95181 5.90638 3.58026 6.13208 4.1851C6.22177 4.42372 6.24119 4.68305 6.18802 4.93236C6.13485 5.18167 6.01132 5.41051 5.83208 5.59177L4.98541 6.43844C5.93445 8.10747 7.31638 9.4894 8.98541 10.4384L9.83208 9.59177C10.0133 9.41253 10.2422 9.289 10.4915 9.23583C10.7408 9.18266 11.0001 9.20208 11.2387 9.29177C11.8436 9.51747 12.472 9.67402 13.1121 9.75844C13.4359 9.80412 13.7317 9.96724 13.9431 10.2168C14.1545 10.4663 14.2669 10.7848 14.2587 11.1118Z" stroke="url(#paint0_linear_763_4364)" stroke-linecap="round" stroke-linejoin="round"/>
<defs>
<linearGradient id="paint0_linear_763_4364" x1="1" y1="7.80778" x2="14.2592" y2="7.80778" gradientUnits="userSpaceOnUse">
<stop stop-color="#E2CD69"/>
<stop offset="1" stop-color="#94C67A"/>
</linearGradient>
</defs>
</svg>
