<svg width="20" height="20" viewBox="0 0 20 20" fill="none" xmlns="http://www.w3.org/2000/svg">
<path d="M8.4464 4.54676L4.93641 8.05676M5.56641 9.67676C5.56641 10.9194 4.55905 11.9268 3.31641 11.9268C2.07377 11.9268 1.06641 10.9194 1.06641 9.67676C1.06641 8.43412 2.07377 7.42676 3.31641 7.42676C4.55905 7.42676 5.56641 8.43412 5.56641 9.67676ZM5.56641 9.67676L14.5664 9.67676M14.5664 9.67676C14.5664 10.9194 15.5738 11.9268 16.8164 11.9268C18.059 11.9268 19.0664 10.9194 19.0664 9.67676C19.0664 8.43412 18.059 7.42676 16.8164 7.42676C15.5738 7.42676 14.5664 8.43412 14.5664 9.67676ZM11.6864 14.8068L15.1964 11.2968M12.3164 2.92676C12.3164 4.1694 11.309 5.17676 10.0664 5.17676C8.82376 5.17676 7.8164 4.1694 7.8164 2.92676C7.8164 1.68412 8.82376 0.676758 10.0664 0.676758C11.309 0.676758 12.3164 1.68412 12.3164 2.92676ZM12.3164 16.4268C12.3164 17.6694 11.309 18.6768 10.0664 18.6768C8.82376 18.6768 7.8164 17.6694 7.8164 16.4268C7.8164 15.1841 8.82376 14.1768 10.0664 14.1768C11.309 14.1768 12.3164 15.1841 12.3164 16.4268Z" stroke="url(#paint0_linear_801_381)" stroke-linecap="round" stroke-linejoin="round"/>
<defs>
<linearGradient id="paint0_linear_801_381" x1="1.06641" y1="9.67676" x2="19.0664" y2="9.67676" gradientUnits="userSpaceOnUse">
<stop stop-color="#E2CD69"/>
<stop offset="1" stop-color="#94C67A"/>
</linearGradient>
</defs>
</svg>
